{
	"asset":{
		"generator":"Khronos glTF Blender I/O v4.4.56",
		"version":"2.0"
	},
	"scene":0,
	"scenes":[
		{
			"name":"Scene",
			"nodes":[
				0
			]
		}
	],
	"nodes":[
		{
			"mesh":0,
			"name":"Object_7"
		}
	],
	"materials":[
		{
			"doubleSided":true,
			"name":"mark1_battlebody",
			"pbrMetallicRoughness":{
				"baseColorTexture":{
					"index":0
				},
				"metallicFactor":0
			}
		}
	],
	"meshes":[
		{
			"name":"body_mark1_battle@body_0",
			"primitives":[
				{
					"attributes":{
						"POSITION":0,
						"NORMAL":1,
						"TEXCOORD_0":2,
						"TEXCOORD_1":3
					},
					"indices":4,
					"material":0
				}
			]
		}
	],
	"textures":[
		{
			"sampler":0,
			"source":0
		}
	],
	"images":[
		{
			"mimeType":"image/png",
			"name":"mark1_battlebody_baseColor",
			"uri":"textures/mark1_battlebody_baseColor.png"
		}
	],
	"accessors":[
		{
			"bufferView":0,
			"componentType":5126,
			"count":17855,
			"max":[
				0.6302070021629333,
				1.972120761871338,
				0.3745464086532593
			],
			"min":[
				-0.6965317130088806,
				-0.0007410211837850511,
				-0.21888138353824615
			],
			"type":"VEC3"
		},
		{
			"bufferView":1,
			"componentType":5126,
			"count":17855,
			"type":"VEC3"
		},
		{
			"bufferView":2,
			"componentType":5126,
			"count":17855,
			"type":"VEC2"
		},
		{
			"bufferView":3,
			"componentType":5126,
			"count":17855,
			"type":"VEC2"
		},
		{
			"bufferView":4,
			"componentType":5123,
			"count":57429,
			"type":"SCALAR"
		}
	],
	"bufferViews":[
		{
			"buffer":0,
			"byteLength":214260,
			"byteOffset":0,
			"target":34962
		},
		{
			"buffer":0,
			"byteLength":214260,
			"byteOffset":214260,
			"target":34962
		},
		{
			"buffer":0,
			"byteLength":142840,
			"byteOffset":428520,
			"target":34962
		},
		{
			"buffer":0,
			"byteLength":142840,
			"byteOffset":571360,
			"target":34962
		},
		{
			"buffer":0,
			"byteLength":114858,
			"byteOffset":714200,
			"target":34963
		}
	],
	"samplers":[
		{
			"magFilter":9728,
			"minFilter":9984
		}
	],
	"buffers":[
		{
			"byteLength":829060,
			"uri":"scene.bin"
		}
	]
}
